<?xml version="1.0" standalone="no"?>
<!DOCTYPE svg PUBLIC "-//W3C//DTD SVG 20010904//EN"
 "http://www.w3.org/TR/2001/REC-SVG-20010904/DTD/svg10.dtd">
<svg version="1.0" xmlns="http://www.w3.org/2000/svg"
 width="223.000000pt" height="226.000000pt" viewBox="0 0 223.000000 226.000000"
 preserveAspectRatio="xMidYMid meet">
<metadata>
Created by potrace 1.11, written by Peter Selinger 2001-2013
</metadata>
<g transform="translate(0.000000,226.000000) scale(0.100000,-0.100000)"
fill="#000000" stroke="none">
<path d="M1033 2247 c-3 -5 -11 -6 -19 -3 -8 3 -14 1 -14 -5 0 -6 -4 -7 -10
-4 -5 3 -10 1 -10 -4 0 -6 -5 -11 -11 -11 -6 0 -24 -13 -41 -30 -16 -16 -27
-30 -23 -30 3 0 -3 -13 -14 -29 -11 -15 -18 -31 -14 -35 3 -3 1 -6 -6 -6 -8 0
-11 -6 -7 -16 3 -9 3 -20 0 -25 -3 -5 -5 -155 -4 -332 l1 -322 -298 -1 c-317
0 -383 -3 -383 -17 0 -5 -7 -7 -15 -3 -8 3 -15 1 -15 -5 0 -6 -4 -7 -10 -4 -5
3 -10 1 -10 -5 0 -6 -4 -8 -10 -5 -5 3 -10 1 -10 -4 0 -6 -6 -11 -13 -11 -8 0
-24 -11 -37 -25 -13 -14 -20 -25 -16 -25 4 0 -2 -13 -14 -30 -12 -16 -18 -30
-14 -30 3 0 2 -6 -3 -12 -11 -15 -10 -149 1 -166 4 -7 4 -12 1 -12 -4 0 3 -14
15 -30 12 -17 19 -30 17 -30 -3 0 11 -16 30 -35 19 -19 39 -35 44 -35 5 0 9
-5 9 -11 0 -5 4 -7 10 -4 5 3 10 2 10 -4 0 -6 7 -8 15 -5 8 4 15 2 15 -2 0
-14 35 -16 365 -18 l316 -1 -1 -320 c-1 -176 2 -328 5 -337 4 -9 4 -22 0 -28
-3 -5 -1 -10 5 -10 7 0 10 -5 8 -12 -3 -7 3 -20 11 -30 9 -10 15 -21 14 -23
-3 -7 57 -65 68 -65 5 0 9 -5 9 -11 0 -5 4 -7 10 -4 6 3 10 2 10 -4 0 -6 6 -8
14 -5 8 3 16 2 19 -3 4 -7 157 -9 165 -3 1 2 5 3 10 4 4 1 18 8 32 16 14 8 27
15 30 15 9 1 63 55 56 55 -4 0 2 13 13 29 11 15 18 31 14 35 -3 3 -1 6 6 6 8
0 11 6 7 16 -3 9 -3 20 0 25 3 5 5 155 4 332 l-1 322 313 0 c304 1 350 3 376
19 7 4 12 4 12 1 0 -4 13 3 29 14 15 11 30 18 33 16 2 -3 17 9 33 25 16 17 25
30 21 30 -4 0 2 14 14 30 12 17 18 30 14 30 -3 0 -2 6 3 13 8 10 10 147 3 170
-1 4 -4 10 -5 15 -2 4 -6 17 -10 30 -4 12 -11 22 -15 22 -4 0 -10 9 -13 20 -3
11 -17 24 -31 30 -14 5 -26 14 -26 20 0 6 -4 8 -10 5 -5 -3 -10 -1 -10 5 0 6
-4 8 -10 5 -5 -3 -10 -2 -10 4 0 6 -7 8 -15 5 -8 -4 -15 -2 -15 3 0 14 -66 17
-383 17 l-298 1 1 320 c0 176 0 325 -1 330 -4 21 -7 33 -14 53 -2 4 -6 17 -10
29 -4 12 -14 24 -22 27 -8 3 -12 10 -9 14 3 5 -6 20 -19 32 -14 13 -25 20 -25
16 0 -4 -15 3 -32 16 -18 13 -34 22 -35 20 -2 -1 -4 -2 -5 -1 -17 5 -161 2
-165 -4z"/>
</g>
</svg>
